<?xml version="1.0" standalone="no"?>
<!DOCTYPE svg PUBLIC "-//W3C//DTD SVG 20010904//EN"
 "http://www.w3.org/TR/2001/REC-SVG-20010904/DTD/svg10.dtd">
<svg version="1.0" xmlns="http://www.w3.org/2000/svg"
 width="352.000000pt" height="352.000000pt" viewBox="0 0 352.000000 352.000000"
 preserveAspectRatio="xMidYMid meet">
<metadata>
Created by potrace 1.14, written by Peter Selinger 2001-2017
</metadata>
<g transform="translate(0.000000,352.000000) scale(0.100000,-0.100000)"
fill="#000000" stroke="none">
<path d="M210 2165 l0 -1145 555 0 555 0 1 -62 c0 -35 0 -231 0 -436 l0 -373
602 4 c620 4 711 9 822 47 33 11 68 20 78 20 9 0 40 11 69 25 28 14 58 25 65
25 7 0 13 4 13 8 0 5 18 19 41 31 58 33 209 186 249 254 66 110 96 173 109
225 6 20 20 73 32 117 20 74 22 103 23 365 0 280 0 287 -28 400 -28 117 -90
284 -113 308 -7 7 -13 18 -13 23 0 13 -73 119 -82 119 -5 0 -13 11 -18 25 -5
14 -16 25 -24 25 -8 0 -18 9 -21 20 -3 11 -10 20 -15 20 -5 0 -21 11 -36 25
-15 14 -44 35 -63 47 -20 12 -38 24 -41 27 -22 25 -220 97 -290 106 -19 3 -53
8 -75 11 -22 3 -320 8 -662 11 l-621 5 -1 -394 c0 -216 0 -411 0 -433 l-1 -40
-183 2 c-100 1 -190 2 -199 2 -17 1 -18 49 -18 866 l0 865 -355 0 -355 0 0
-1145z m2216 -273 c91 -31 165 -80 196 -131 12 -20 25 -38 29 -41 4 -3 20 -52
37 -110 l30 -105 -2 -240 c-1 -219 -4 -246 -24 -310 -26 -78 -53 -135 -64
-135 -5 0 -8 -5 -8 -11 0 -27 -74 -83 -143 -107 -66 -24 -89 -27 -259 -30
l-188 -4 0 620 c0 340 3 622 7 626 4 4 75 6 158 5 135 -1 159 -4 231 -27z"/>
</g>
</svg>
